<svg width="314" height="314" viewBox="0 0 314 314" fill="none" xmlns="http://www.w3.org/2000/svg">
<rect width="314" height="314"/>
<path d="M233.745 238.387C233.742 240.857 231.705 242.859 229.234 242.859V242.859C226.798 242.859 224.79 240.885 224.79 238.449V238.449C224.79 236.013 222.816 234.039 220.38 234.039H215.85C210.913 234.039 206.91 238.042 206.91 242.979V255.904C206.91 258.409 204.88 260.439 202.375 260.439V260.439C199.871 260.439 197.84 258.409 197.84 255.904V247.659C197.84 245.174 195.825 243.159 193.34 243.159V243.159C190.855 243.159 188.84 245.174 188.84 247.659V265.059C188.84 267.511 186.852 269.499 184.4 269.499V269.499C181.948 269.499 179.96 267.511 179.96 265.059V254.505C179.96 252.95 178.699 251.689 177.144 251.689H170.758C170.721 251.689 170.701 251.733 170.727 251.76V251.76C170.753 251.789 170.8 251.77 170.8 251.731V245.177C170.8 243.725 171.977 242.549 173.428 242.549H175.3C177.785 242.549 179.8 240.534 179.8 238.049V229.27C179.8 226.87 181.679 224.89 184.075 224.764V224.764C186.472 224.638 188.35 222.658 188.35 220.258V211.183C188.35 208.789 186.41 206.849 184.017 206.849H182.184C180.77 206.849 179.629 205.69 179.651 204.275C179.683 202.13 179.713 199.957 179.748 197.808C179.749 197.769 179.702 197.751 179.676 197.779V197.779C179.651 197.805 179.67 197.849 179.707 197.849H185.885C187.39 197.849 188.61 196.629 188.61 195.124V193.444C188.61 191.011 190.582 189.039 193.015 189.039H229.05C231.486 189.039 233.46 191.013 233.46 193.449V193.449C233.46 195.885 235.435 197.859 237.87 197.859H251.683C251.72 197.859 251.739 197.815 251.714 197.788V197.788C251.687 197.76 251.64 197.778 251.64 197.817V204.122C251.64 205.518 252.772 206.649 254.167 206.649H260.535C265.448 206.649 269.43 210.631 269.43 215.544V238.484C269.43 240.784 267.565 242.649 265.265 242.649V242.649C262.965 242.649 261.1 244.514 261.1 246.814V247.479C261.1 249.782 262.967 251.649 265.27 251.649V251.649C267.573 251.649 269.44 253.516 269.44 255.819V260.594C269.44 265.534 265.435 269.539 260.495 269.539H251.865C246.936 269.539 242.94 265.543 242.94 260.614V254.407C242.94 252.906 241.723 251.689 240.222 251.689H233.758C233.722 251.689 233.704 251.733 233.729 251.758V251.758C233.755 251.784 233.799 251.765 233.798 251.729C233.763 249.633 233.724 247.503 233.686 245.374C233.66 243.915 234.836 242.719 236.295 242.719H247.14C249.625 242.719 251.64 240.704 251.64 238.219V238.089C251.64 235.676 253.597 233.719 256.01 233.719V233.719C258.424 233.719 260.38 231.762 260.38 229.349V229.229C260.38 226.816 258.424 224.859 256.01 224.859V224.859C253.597 224.859 251.64 222.902 251.64 220.489V220.099C251.64 217.586 249.603 215.549 247.09 215.549H246.755C244.427 215.549 242.54 213.662 242.54 211.334V211.334C242.54 209.006 240.653 207.119 238.325 207.119H238.158C235.739 207.119 233.778 209.078 233.775 211.497L233.745 238.387ZM197.92 211.224C197.92 214.2 197.92 215.688 198.232 216.908C199.138 220.448 201.902 223.211 205.441 224.117C206.661 224.429 208.144 224.429 211.11 224.429V224.429C214.076 224.429 215.559 224.429 216.779 224.117C220.319 223.211 223.082 220.448 223.988 216.908C224.3 215.688 224.3 214.2 224.3 211.224V211.224C224.3 208.248 224.3 206.76 223.988 205.54C223.082 202.001 220.319 199.237 216.779 198.331C215.559 198.019 214.076 198.019 211.11 198.019V198.019C208.144 198.019 206.661 198.019 205.441 198.331C201.902 199.237 199.138 202.001 198.232 205.54C197.92 206.76 197.92 208.248 197.92 211.224V211.224Z" fill="#f1f1f1"/>
<path d="M143.529 80.9652C143.501 80.9958 143.524 81.0457 143.566 81.0434L150.027 80.6797C151.42 80.6012 152.51 79.4488 152.51 78.0537V76.4726C152.51 74.0963 154.436 72.1699 156.812 72.1699H157.235C159.844 72.1699 161.96 74.2853 161.96 76.8948C161.96 79.7007 161.96 82.5422 161.96 85.3948C161.96 87.9381 159.898 89.9999 157.355 89.9999H157.185C154.735 89.9999 152.75 92.0182 152.75 94.4676V94.4676C152.75 96.8811 150.793 98.8699 148.38 98.8699V98.8699C145.966 98.8699 144.01 100.826 144.01 103.24V112.11C144.01 114.485 145.935 116.41 148.31 116.41V116.41C150.684 116.41 152.61 114.485 152.61 112.11V103.316C152.61 100.793 154.683 98.7636 157.205 98.8169L157.415 98.8213C159.746 98.8706 161.61 100.774 161.61 103.105V103.105C161.61 105.472 163.528 107.39 165.894 107.39H166.295C168.595 107.39 170.46 105.525 170.46 103.225V103.225C170.46 100.925 168.595 99.0599 166.295 99.0599H166.048C163.544 99.0599 161.541 96.9776 161.64 94.4752L161.647 94.2951C161.743 91.8347 163.766 89.8899 166.228 89.8899H170.845C175.724 89.8899 179.68 93.8455 179.68 98.7249V103.145C179.68 105.583 181.656 107.56 184.095 107.56H184.285C186.618 107.56 188.51 105.668 188.51 103.335V103.335C188.51 101.001 190.401 99.1099 192.735 99.1099H193.095C195.627 99.1099 197.68 101.163 197.68 103.695V112.335C197.68 114.729 199.62 116.67 202.015 116.67V116.67C204.409 116.67 206.35 118.611 206.35 121.005V132.028C206.35 133.487 205.167 134.67 203.708 134.67H197.727C197.69 134.67 197.671 134.714 197.696 134.741V134.741C197.722 134.769 197.77 134.751 197.77 134.712V128.142C197.77 126.688 196.591 125.51 195.138 125.51H192.745C190.417 125.51 188.53 123.623 188.53 121.295V121.295C188.53 118.967 186.642 117.08 184.315 117.08H169.462C165.136 117.08 161.63 120.586 161.63 124.912V143.721C161.63 143.757 161.674 143.776 161.7 143.75V143.75C161.725 143.724 161.707 143.68 161.671 143.68H149.042C146.13 143.68 143.77 146.04 143.77 148.952V152.77C143.77 157.774 139.713 161.83 134.71 161.83H133.262C129.037 161.83 125.619 158.393 125.642 154.168L125.749 134.798C125.749 134.759 125.702 134.741 125.676 134.769V134.769C125.651 134.796 125.67 134.84 125.707 134.84H131.884C133.389 134.84 134.61 133.62 134.61 132.115V94.45C134.61 91.9647 136.624 89.95 139.11 89.95H141.035C142.457 89.95 143.61 88.7969 143.61 87.3748C143.61 85.1635 143.61 83.0791 143.61 80.997C143.61 80.955 143.558 80.9346 143.529 80.9652V80.9652ZM148.135 126.05C145.823 126.05 143.95 127.964 143.95 130.275V130.275C143.95 132.586 145.823 134.5 148.135 134.5V134.5C150.446 134.5 152.32 132.586 152.32 130.275V130.275C152.32 127.964 150.446 126.05 148.135 126.05V126.05Z" fill="#f1f1f1"/>
<path d="M85.395 170.695C87.8136 170.703 89.77 172.704 89.77 175.123V175.123C89.77 177.59 87.7536 179.63 85.2862 179.63V179.63C82.8009 179.63 80.77 181.644 80.77 184.13V188.665C80.77 193.555 76.8055 197.52 71.915 197.52H67.365C64.9874 197.52 63.06 195.592 63.06 193.215V193.08C63.06 190.777 64.927 188.91 67.23 188.91V188.91C69.533 188.91 71.4 187.043 71.4 184.74V175.265C71.4 172.915 69.495 171.01 67.145 171.01V171.01C64.795 171.01 62.89 172.954 62.89 175.304V175.304C62.89 177.699 60.9491 179.68 58.555 179.68H53.62V179.68C53.6716 179.731 53.76 179.695 53.76 179.622V161.908C53.76 161.835 53.6716 161.798 53.62 161.85V161.85H62.355C67.3007 161.85 71.31 157.79 71.31 152.845V152.845C71.31 147.954 67.3455 143.94 62.455 143.94H58.2151C55.6662 143.94 53.6 141.874 53.6 139.325V139.085C53.6 136.668 55.5991 134.71 58.0154 134.71V134.71C60.3874 134.71 62.35 132.787 62.35 130.415V130.415C62.35 128.043 60.4221 126.12 58.05 126.12V126.12C55.6724 126.12 53.74 128.079 53.74 130.457V130.457C53.74 132.87 51.7835 134.86 49.37 134.86V134.86C46.9565 134.86 45 132.903 45 130.49V125.955C45 121.037 48.9869 117.05 53.905 117.05H76.3001C78.6583 117.05 80.57 118.962 80.57 121.32V121.32C80.57 123.678 82.4817 125.59 84.84 125.59H84.975C87.4078 125.59 89.38 127.562 89.38 129.995V130.425C89.38 132.725 87.5153 134.59 85.215 134.59V134.59C82.9147 134.59 81.05 136.454 81.05 138.755V139.205C81.05 141.754 83.1162 143.82 85.665 143.82H98.6524C98.6895 143.82 98.7087 143.776 98.6834 143.748V143.748C98.6571 143.72 98.61 143.739 98.61 143.777V149.932C98.61 151.295 99.715 152.4 101.078 152.4H105.193C106.605 152.4 107.75 151.255 107.75 149.843V143.769C107.75 143.732 107.706 143.714 107.68 143.74V143.74C107.654 143.766 107.672 143.81 107.709 143.81H114.08C115.56 143.81 116.76 145.01 116.76 146.49V152.81C116.76 157.78 112.731 161.81 107.76 161.81H101.154C99.7492 161.81 98.61 162.949 98.61 164.354V170.703C98.61 170.741 98.6566 170.76 98.6826 170.732V170.732C98.7078 170.705 98.6882 170.661 98.6512 170.662L92.3799 170.772C90.869 170.798 89.63 169.581 89.63 168.07V157.375C89.63 154.997 87.7026 153.07 85.325 153.07V153.07C82.9474 153.07 81.02 154.997 81.02 157.375V166.305C81.02 168.723 82.9763 170.686 85.395 170.695V170.695Z" fill="#f1f1f1"/>
<path d="M269.33 91.5397C269.33 97.1402 269.33 99.9405 268.24 102.08C267.281 103.961 265.752 105.491 263.87 106.45C261.731 107.54 258.931 107.54 253.33 107.54H223C217.399 107.54 214.599 107.54 212.46 106.45C210.578 105.491 209.049 103.961 208.09 102.08C207 99.9405 207 97.1402 207 91.5397V61.1797C207 55.5792 207 52.7789 208.09 50.6398C209.049 48.7582 210.578 47.2284 212.46 46.2696C214.599 45.1797 217.399 45.1797 223 45.1797H253.33C258.931 45.1797 261.731 45.1797 263.87 46.2696C265.752 47.2284 267.281 48.7582 268.24 50.6398C269.33 52.7789 269.33 55.5792 269.33 61.1797V91.5397ZM215.85 82.4397C215.85 88.0402 215.85 90.8405 216.94 92.9796C217.899 94.8612 219.428 96.391 221.31 97.3498C223.449 98.4397 226.249 98.4397 231.85 98.4397H244.35C249.951 98.4397 252.751 98.4397 254.89 97.3498C256.772 96.391 258.301 94.8612 259.26 92.9796C260.35 90.8405 260.35 88.0402 260.35 82.4397V70.1997C260.35 64.5992 260.35 61.7989 259.26 59.6598C258.301 57.7782 256.772 56.2484 254.89 55.2896C252.751 54.1997 249.951 54.1997 244.35 54.1997H231.85C226.249 54.1997 223.449 54.1997 221.31 55.2896C219.428 56.2484 217.899 57.7782 216.94 59.6598C215.85 61.7989 215.85 64.5992 215.85 70.1997V82.4397Z" fill="#f1f1f1"/>
<path d="M91.4706 45.1396C97.0711 45.1396 99.8714 45.1396 102.011 46.2296C103.892 47.1883 105.422 48.7181 106.381 50.5997C107.471 52.7389 107.471 55.5391 107.471 61.1396V91.4896C107.471 97.0901 107.471 99.8904 106.381 102.03C105.422 103.911 103.892 105.441 102.011 106.4C99.8714 107.49 97.0711 107.49 91.4706 107.49H61.1406C55.5401 107.49 52.7398 107.49 50.6007 106.4C48.7191 105.441 47.1893 103.911 46.2306 102.03C45.1406 99.8904 45.1406 97.0901 45.1406 91.4896V61.1396C45.1406 55.5391 45.1406 52.7389 46.2306 50.5997C47.1893 48.7181 48.7191 47.1883 50.6007 46.2296C52.7398 45.1396 55.5401 45.1396 61.1406 45.1396H91.4706ZM53.9806 82.4297C53.9806 88.0302 53.9806 90.8305 55.0706 92.9696C56.0293 94.8512 57.5591 96.381 59.4407 97.3398C61.5798 98.4297 64.3801 98.4297 69.9806 98.4297H82.3506C87.9512 98.4297 90.7514 98.4297 92.8906 97.3398C94.7722 96.381 96.302 94.8512 97.2607 92.9696C98.3506 90.8305 98.3506 88.0302 98.3506 82.4297V70.0197C98.3506 64.4191 98.3506 61.6189 97.2607 59.4797C96.302 57.5981 94.7722 56.0683 92.8906 55.1096C90.7514 54.0197 87.9512 54.0197 82.3506 54.0197H69.9806C64.3801 54.0197 61.5798 54.0197 59.4407 55.1096C57.5591 56.0683 56.0293 57.5981 55.0706 59.4797C53.9806 61.6189 53.9806 64.4191 53.9806 70.0197V82.4297Z" fill="#f1f1f1"/>
<path d="M45.0801 223.01C45.0801 217.409 45.0801 214.609 46.17 212.47C47.1287 210.588 48.6586 209.058 50.5402 208.1C52.6793 207.01 55.4796 207.01 61.0801 207.01H91.4301C97.0306 207.01 99.8309 207.01 101.97 208.1C103.852 209.058 105.381 210.588 106.34 212.47C107.43 214.609 107.43 217.409 107.43 223.01V253.37C107.43 258.97 107.43 261.771 106.34 263.91C105.381 265.791 103.852 267.321 101.97 268.28C99.8309 269.37 97.0306 269.37 91.4301 269.37H61.0801C55.4796 269.37 52.6793 269.37 50.5402 268.28C48.6586 267.321 47.1287 265.791 46.17 263.91C45.0801 261.771 45.0801 258.97 45.0801 253.37V223.01ZM53.8501 244.44C53.8501 250.04 53.8501 252.841 54.94 254.98C55.8988 256.861 57.4286 258.391 59.3102 259.35C61.4493 260.44 64.2496 260.44 69.8501 260.44H82.3601C87.9606 260.44 90.7609 260.44 92.9 259.35C94.7816 258.391 96.3114 256.861 97.2701 254.98C98.3601 252.841 98.3601 250.04 98.3601 244.44V232.19C98.3601 226.589 98.3601 223.789 97.2701 221.65C96.3114 219.768 94.7816 218.238 92.9 217.28C90.7609 216.19 87.9606 216.19 82.3601 216.19H69.8501C64.2496 216.19 61.4493 216.19 59.3102 217.28C57.4286 218.238 55.8988 219.768 54.94 221.65C53.8501 223.789 53.8501 226.589 53.8501 232.19V244.44Z" fill="#f1f1f1"/>
<path d="M251.739 148.457C251.739 150.87 249.783 152.859 247.369 152.859H247.239C244.754 152.859 242.739 154.874 242.739 157.359V166.18C242.739 169.267 242.739 170.811 242.401 172.078C241.478 175.537 238.776 178.238 235.317 179.161C234.05 179.5 232.507 179.5 229.419 179.5H220.339C217.904 179.5 215.929 177.525 215.929 175.09V175.09C215.929 172.654 213.955 170.68 211.519 170.68H206.619V170.68C206.671 170.731 206.759 170.695 206.759 170.622V151.926C206.759 147.603 210.263 144.099 214.585 144.099H220.359C222.646 144.099 224.499 145.953 224.499 148.24V148.24C224.499 150.526 226.353 152.38 228.639 152.38H229.134C231.694 152.38 233.769 150.304 233.769 147.745V134.709L233.619 134.849H251.644C256.557 134.849 260.539 130.867 260.539 125.955V121.51C260.539 119.052 262.531 117.06 264.989 117.06V117.06C267.447 117.06 269.439 119.052 269.439 121.51V152.47C269.439 157.396 265.446 161.39 260.519 161.39H255.939C253.542 161.39 251.599 159.446 251.599 157.049V157.049C251.599 154.653 253.542 152.709 255.939 152.709H256.054C258.426 152.709 260.349 150.787 260.349 148.414V148.414C260.349 146.042 258.421 144.12 256.049 144.12V144.12C253.672 144.12 251.739 146.079 251.739 148.457V148.457ZM224.739 166.31C224.739 168.607 226.602 170.469 228.899 170.469H229.149C231.447 170.469 233.309 168.607 233.309 166.31V166.31C233.309 164.012 231.447 162.15 229.149 162.15H228.899C226.602 162.15 224.739 164.012 224.739 166.31V166.31Z" fill="#f1f1f1"/>
<path d="M206.619 170.68V170.68C206.619 175.611 202.622 179.609 197.69 179.609H184.779C181.929 179.609 179.62 181.919 179.62 184.768V197.743C179.62 197.781 179.666 197.799 179.692 197.771V197.771C179.717 197.744 179.698 197.7 179.661 197.701L173.375 197.804C171.861 197.829 170.62 196.608 170.62 195.093V193.312C170.62 190.847 168.603 188.849 166.138 188.849V188.849C163.653 188.849 161.62 186.834 161.62 184.349C161.62 181.35 161.62 178.352 161.62 175.354C161.62 172.783 163.704 170.699 166.275 170.699H166.38C168.893 170.699 170.93 168.662 170.93 166.149V165.814C170.93 163.486 172.817 161.599 175.145 161.599V161.599C177.473 161.599 179.36 159.712 179.36 157.384V157.224C179.36 154.808 177.401 152.849 174.985 152.849H164.264C162.8 152.849 161.619 151.649 161.643 150.185L161.748 143.809C161.749 143.773 161.705 143.754 161.679 143.78V143.78C161.653 143.805 161.671 143.849 161.707 143.849H188.642C188.681 143.849 188.699 143.802 188.671 143.776V143.776C188.644 143.75 188.6 143.769 188.6 143.807V157.089C188.6 159.552 190.596 161.549 193.06 161.549V161.549C195.523 161.549 197.52 163.546 197.52 166.009V167.964C197.52 169.552 198.807 170.839 200.394 170.839H206.547C206.63 170.839 206.674 170.742 206.619 170.68V170.68Z" fill="#f1f1f1"/>
<path d="M125.769 53.71C125.73 53.7704 125.773 53.85 125.845 53.85H131.455C133.197 53.85 134.609 52.4381 134.609 50.6966V49.445C134.609 47.0122 136.581 45.04 139.014 45.04H139.274C141.591 45.04 143.469 46.9182 143.469 49.235V49.235C143.469 51.5519 145.347 53.4301 147.664 53.4301H148.249C150.616 53.4301 152.57 51.5799 152.699 49.2162C152.702 49.1757 152.704 49.1353 152.706 49.0948C152.831 46.7983 154.73 45 157.03 45V45C159.421 45 161.359 46.9383 161.359 49.3292V53.845C161.359 58.73 157.399 62.6901 152.514 62.6901H148.645C145.781 62.6901 143.459 65.0124 143.459 67.8769C143.459 72.363 143.459 76.6485 143.459 80.9324C143.459 80.9709 143.506 80.9895 143.532 80.9613V80.9613C143.558 80.9342 143.538 80.89 143.501 80.89H130.26C127.831 80.89 125.828 82.79 125.693 85.2145C125.689 85.2922 125.684 85.3699 125.68 85.4475C125.553 87.7338 123.66 89.52 121.37 89.52V89.52C118.983 89.52 117.049 87.5855 117.049 85.1991V67.34C117.049 64.932 119.001 62.98 121.409 62.98V62.98C123.817 62.98 125.769 61.0279 125.769 58.62V53.71V53.71Z" fill="#f1f1f1"/>
<path d="M179.729 53.799C179.71 53.8175 179.724 53.849 179.75 53.849H188.69C188.726 53.849 188.745 53.8048 188.719 53.779V53.779C188.693 53.7532 188.649 53.7715 188.649 53.808V60.0729C188.649 61.5288 189.829 62.709 191.285 62.709H193.059C195.495 62.709 197.469 64.6834 197.469 67.119V85.1041C197.469 87.4872 195.537 89.4191 193.154 89.4191H193.059C190.728 89.4191 188.839 87.5297 188.839 85.199V85.199C188.839 82.8684 186.95 80.979 184.619 80.979H184.399C181.947 80.979 179.959 78.9912 179.959 76.539V76.4291C179.959 73.9438 177.914 71.9291 175.429 71.9291V71.9291C172.977 71.9291 170.959 69.9262 170.959 67.474V67.474C170.959 65.0384 172.933 63.0491 175.369 63.0491H177.055C178.559 63.0491 179.779 61.8295 179.779 60.3252V53.8197C179.779 53.7936 179.747 53.7806 179.729 53.799V53.799Z" fill="#f1f1f1"/>
<path d="M125.675 233.738C125.704 233.772 125.76 233.752 125.76 233.707V211.379C125.76 208.966 123.803 207.009 121.39 207.009V207.009C118.976 207.009 117.02 205.053 117.02 202.639V202.429C117.02 199.9 119.07 197.849 121.6 197.849H134.75L134.609 197.699V207.044C134.609 211.968 138.601 215.959 143.525 215.959H148.034C150.467 215.959 152.44 217.931 152.44 220.364V220.364C152.44 222.797 150.467 224.769 148.034 224.769H138.984C136.53 224.769 134.539 226.759 134.539 229.214V230.811C134.539 232.384 133.264 233.659 131.692 233.659H125.712C125.671 233.659 125.649 233.707 125.675 233.738V233.738Z" fill="#f1f1f1"/>
<path d="M134.648 260.774C134.682 260.745 134.662 260.689 134.617 260.689H128.141C126.82 260.689 125.75 261.76 125.75 263.081V265.134C125.75 267.545 123.795 269.499 121.385 269.499V269.499C118.974 269.499 117.02 267.545 117.02 265.134V236.298C117.02 234.94 118.12 233.839 119.479 233.839H125.612C125.65 233.839 125.669 233.792 125.641 233.766V233.766C125.614 233.74 125.57 233.76 125.57 233.797V240.16C125.57 241.712 126.827 242.969 128.378 242.969H130.07C132.555 242.969 134.57 244.984 134.57 247.469V260.737C134.57 260.778 134.617 260.8 134.648 260.774V260.774Z" fill="#f1f1f1"/>
<path d="M170.694 251.805C170.667 251.768 170.609 251.787 170.609 251.832V258.463C170.609 259.693 169.612 260.689 168.383 260.689H166.239C163.826 260.689 161.869 262.646 161.869 265.059V265.059C161.869 267.473 159.913 269.429 157.499 269.429H137.209C135.851 269.429 134.749 268.328 134.749 266.97V260.837C134.749 260.798 134.702 260.78 134.676 260.808V260.808C134.651 260.835 134.67 260.879 134.707 260.879H141.078C142.631 260.879 143.889 259.621 143.889 258.068V256.379C143.889 253.894 145.904 251.879 148.389 251.879H170.656C170.695 251.879 170.717 251.836 170.694 251.805V251.805Z" fill="#f1f1f1"/>
<path d="M233.769 134.709L220.39 134.71C217.971 134.71 216.01 132.749 216.01 130.33V130.16C216.01 127.835 217.895 125.95 220.22 125.95V125.95C222.545 125.95 224.43 124.065 224.43 121.74V121.525C224.43 119.081 226.411 117.1 228.855 117.1H247.205C249.538 117.1 251.43 118.991 251.43 121.325V121.325C251.43 123.658 249.538 125.55 247.205 125.55H242.524C237.606 125.55 233.619 129.536 233.619 134.454L233.619 134.849L233.769 134.709Z" fill="#f1f1f1"/>
<path d="M251.666 197.78C251.692 197.809 251.74 197.79 251.74 197.752V175.549C251.74 173.125 253.705 171.159 256.13 171.159H256.232C258.6 171.159 260.52 173.079 260.52 175.447V175.447C260.52 177.729 262.307 179.611 264.586 179.729L265.28 179.765C267.606 179.885 269.43 181.806 269.43 184.134V184.224C269.43 186.591 267.511 188.509 265.145 188.509V188.509C262.778 188.509 260.86 190.428 260.86 192.794V194.904C260.86 196.453 259.604 197.709 258.055 197.709H251.697C251.66 197.709 251.641 197.753 251.666 197.78V197.78Z" fill="#f1f1f1"/>
<path d="M107.688 134.773C107.715 134.799 107.759 134.78 107.759 134.743C107.759 131.838 107.759 128.851 107.759 125.908C107.759 125.835 107.671 125.798 107.619 125.85V125.85H112.104C114.526 125.85 116.489 123.887 116.489 121.465V121.465C116.489 119.043 118.453 117.08 120.874 117.08H121.044C123.56 117.08 125.599 119.119 125.599 121.635V134.742C125.599 134.781 125.646 134.8 125.673 134.771V134.771C125.698 134.744 125.679 134.7 125.642 134.7H107.717C107.679 134.7 107.66 134.747 107.688 134.773V134.773Z" fill="#f1f1f1"/>
<path d="M134.75 188.69H119.476C117.97 188.69 116.75 187.469 116.75 185.963V179.787C116.75 179.75 116.706 179.731 116.679 179.756V179.756C116.651 179.782 116.669 179.829 116.708 179.829L131.963 179.703C133.485 179.69 134.719 180.934 134.696 182.456C134.665 184.503 134.636 186.574 134.603 188.625C134.602 188.701 134.693 188.742 134.75 188.69V188.69Z" fill="#f1f1f1"/>
<path d="M116.693 179.77C116.718 179.743 116.699 179.699 116.663 179.699H101.304C99.8987 179.699 98.7591 178.56 98.7591 177.154V170.806C98.7591 170.768 98.7122 170.749 98.6861 170.777V170.777C98.6608 170.804 98.6802 170.849 98.7173 170.848L114.184 170.729C115.602 170.718 116.75 171.877 116.727 173.294L116.621 179.74C116.62 179.779 116.667 179.798 116.693 179.77V179.77Z" fill="#f1f1f1"/>
<path d="M197.681 134.756C197.654 134.731 197.609 134.75 197.609 134.787V141.145C197.609 142.55 196.47 143.689 195.065 143.689H188.717C188.678 143.689 188.66 143.737 188.688 143.763V143.763C188.715 143.788 188.759 143.769 188.759 143.732V137.374C188.759 135.969 189.899 134.829 191.304 134.829H197.652C197.69 134.829 197.709 134.782 197.681 134.756V134.756Z" fill="#f1f1f1"/>
<path d="M98.6783 143.782C98.7054 143.808 98.7496 143.788 98.7496 143.751V137.393C98.7496 135.988 99.8888 134.849 101.294 134.849H107.642C107.68 134.849 107.699 134.802 107.671 134.776V134.776C107.644 134.75 107.6 134.769 107.6 134.807V143.75C107.6 143.787 107.644 143.805 107.67 143.779V143.779C107.695 143.753 107.677 143.709 107.641 143.709H98.7072C98.6687 143.709 98.6501 143.756 98.6783 143.782V143.782Z" fill="#f1f1f1"/>
<path d="M53.62 179.68L53.6199 184.115C53.6198 186.492 51.6874 188.42 49.3098 188.42V188.42C46.9377 188.42 45.0098 186.497 45.0098 184.125V182.481C45.0098 181.017 46.197 179.83 47.6615 179.83H53.5548C53.6327 179.83 53.6731 179.737 53.62 179.68V179.68Z" fill="#f1f1f1"/>
<path d="M53.62 161.85C53.6735 161.799 53.638 161.71 53.5645 161.71H47.5077C46.1389 161.71 45.0293 160.6 45.0293 159.231V157.395C45.0293 155.023 46.9522 153.1 49.3243 153.1V153.1C51.6964 153.1 53.6193 155.023 53.6196 157.395C53.6198 158.881 53.62 160.366 53.62 161.85V161.85Z" fill="#f1f1f1"/>
<path d="M103.095 197.419C100.779 197.419 98.9004 195.541 98.9004 193.224V193.224C98.9004 190.907 100.779 189.029 103.095 189.029V189.029C105.412 189.029 107.29 190.907 107.29 193.224V193.224C107.29 195.541 105.412 197.419 103.095 197.419V197.419Z" fill="#f1f1f1"/>
<path d="M134.75 197.849L134.75 188.69V188.69C134.697 188.746 134.738 188.837 134.814 188.836L141.004 188.742C142.519 188.718 143.759 189.94 143.759 191.455V193.234C143.759 195.7 141.76 197.699 139.294 197.699L134.609 197.699L134.75 197.849Z" fill="#f1f1f1"/>
<path d="M107.619 125.85C107.673 125.8 107.638 125.71 107.564 125.71H101.504C100.137 125.71 99.0293 124.601 99.0293 123.234V121.395C99.0293 119.023 100.952 117.1 103.324 117.1V117.1C105.696 117.1 107.619 119.023 107.619 121.395L107.619 125.85V125.85Z" fill="#f1f1f1"/>
<path d="M117.09 102.974C117.09 100.707 118.928 98.8691 121.195 98.8691V98.8691C123.462 98.8691 125.3 100.707 125.3 102.974V103.334C125.3 105.601 123.462 107.439 121.195 107.439V107.439C118.928 107.439 117.09 105.601 117.09 103.334V102.974Z" fill="#f1f1f1"/>
<path d="M188.666 53.7805C188.692 53.8086 188.74 53.79 188.74 53.7515V47.5901C188.74 46.2254 189.846 45.1191 191.211 45.1191H193.055C195.427 45.1191 197.35 47.0421 197.35 49.4141V51.0585C197.35 52.5224 196.163 53.7091 194.699 53.7091H188.697C188.66 53.7091 188.641 53.7533 188.666 53.7805V53.7805Z" fill="#f1f1f1"/>
<path d="M179.691 53.783C179.719 53.7568 179.7 53.7096 179.662 53.7096H173.5C172.136 53.7096 171.029 52.6033 171.029 51.2386V49.3946C171.029 47.0226 172.952 45.0996 175.324 45.0996H176.969C178.433 45.0996 179.619 46.2863 179.619 47.7502C179.619 49.7524 179.619 51.753 179.619 53.752C179.619 53.7891 179.664 53.8083 179.691 53.783V53.783Z" fill="#f1f1f1"/>
<path d="M233.693 251.758C233.667 251.73 233.62 251.749 233.62 251.787V257.949C233.62 259.313 232.513 260.42 231.149 260.42H229.305C226.933 260.42 225.01 258.497 225.01 256.125V254.48C225.01 253.016 226.196 251.83 227.66 251.83H233.662C233.699 251.83 233.718 251.785 233.693 251.758V251.758Z" fill="#f1f1f1"/>
<path d="M125.769 53.71L121.334 53.7098C118.957 53.7097 117.029 51.7772 117.029 49.3997V49.3997C117.029 47.0276 118.952 45.0996 121.324 45.0996H122.97C124.433 45.0996 125.619 46.286 125.619 47.7494V53.645C125.619 53.7227 125.712 53.763 125.769 53.71V53.71Z" fill="#f1f1f1"/>
<path d="M148.144 188.839C145.659 188.839 143.609 186.824 143.609 184.339V184.339C143.609 181.854 141.569 179.839 139.084 179.839V179.839C136.627 179.839 134.609 177.847 134.609 175.389V175.389C134.609 172.932 136.627 170.939 139.084 170.939V170.939C141.569 170.939 143.609 168.924 143.609 166.439V166.149C143.609 163.692 145.602 161.699 148.059 161.699V161.699C150.517 161.699 152.509 159.682 152.509 157.224V157.224C152.509 154.739 154.524 152.699 157.009 152.699H157.129C159.681 152.699 161.749 154.768 161.749 157.319V166.339C161.749 168.824 159.735 170.839 157.249 170.839V170.839C154.764 170.839 152.749 172.854 152.749 175.339V184.269C152.749 186.793 150.668 188.839 148.144 188.839V188.839Z" fill="#f1f1f1"/>
<path d="M157.179 188.699C159.703 188.699 161.749 190.745 161.749 193.269V193.269C161.749 195.793 159.703 197.839 157.179 197.839V197.839C154.655 197.839 152.609 195.793 152.609 193.269V193.269C152.609 190.745 154.655 188.699 157.179 188.699V188.699Z" fill="#f1f1f1"/>
<path d="M161.609 202.269C161.609 199.745 163.655 197.699 166.179 197.699V197.699C168.703 197.699 170.749 199.745 170.749 202.269V202.269C170.749 204.793 168.703 206.839 166.179 206.839V206.839C163.655 206.839 161.609 204.793 161.609 202.269V202.269Z" fill="#f1f1f1"/>
<path d="M170.609 211.064C170.609 208.653 172.564 206.699 174.974 206.699H175.384C177.795 206.699 179.749 208.653 179.749 211.064V211.064C179.749 213.475 177.795 215.429 175.384 215.429H174.974C172.564 215.429 170.609 213.475 170.609 211.064V211.064Z" fill="#f1f1f1"/>
<path d="M206.949 211.225C206.949 208.914 208.823 207 211.134 207V207C213.446 207 215.319 208.914 215.319 211.225V211.225C215.319 213.536 213.446 215.45 211.134 215.45V215.45C208.823 215.45 206.949 213.536 206.949 211.225V211.225Z" fill="#f1f1f1"/>
<path d="M247.385 224.699C249.795 224.699 251.75 226.653 251.75 229.064V229.474C251.75 231.885 249.795 233.839 247.385 233.839V233.839C244.974 233.839 243.02 231.885 243.02 229.474V229.064C243.02 226.653 244.974 224.699 247.385 224.699V224.699Z" fill="#f1f1f1"/>
<path d="M175.225 126.039C177.536 126.039 179.45 127.913 179.45 130.224V130.224C179.45 132.535 177.536 134.409 175.225 134.409V134.409C172.914 134.409 171 132.535 171 130.224V130.224C171 127.913 172.914 126.039 175.225 126.039V126.039Z" fill="#f1f1f1"/>
<path d="M121.179 170.839C118.655 170.839 116.609 168.793 116.609 166.269V166.269C116.609 163.745 118.655 161.699 121.179 161.699V161.699C123.703 161.699 125.749 163.745 125.749 166.269V166.269C125.749 168.793 123.703 170.839 121.179 170.839V170.839Z" fill="#f1f1f1"/>
<path d="M238.27 63.1299C241.235 63.1299 242.717 63.1299 243.936 63.4411C247.478 64.3462 250.244 67.1122 251.149 70.6544C251.46 71.8726 251.46 73.3533 251.46 76.3149V76.3149C251.46 79.2764 251.46 80.7572 251.149 81.9754C250.244 85.5176 247.478 88.2836 243.936 89.1886C242.717 89.4999 241.235 89.4999 238.27 89.4999V89.4999C235.305 89.4999 233.823 89.4999 232.605 89.1886C229.062 88.2836 226.296 85.5176 225.391 81.9754C225.08 80.7572 225.08 79.2764 225.08 76.3149V76.3149C225.08 73.3533 225.08 71.8726 225.391 70.6544C226.296 67.1122 229.062 64.3462 232.605 63.4411C233.823 63.1299 235.305 63.1299 238.27 63.1299V63.1299Z" fill="#f1f1f1"/>
<path d="M76.1001 89.4296C73.134 89.4296 71.6509 89.4296 70.4309 89.1173C66.8917 88.2116 64.1281 85.448 63.2224 81.9089C62.9102 80.6889 62.9102 79.2008 62.9102 76.2245V76.2245C62.9102 73.2483 62.9102 71.7602 63.2224 70.5402C64.1281 67.0011 66.8917 64.2375 70.4309 63.3317C71.6509 63.0195 73.134 63.0195 76.1001 63.0195V63.0195C79.0663 63.0195 80.5494 63.0195 81.7694 63.3317C85.3086 64.2375 88.0722 67.0011 88.9779 70.5402C89.2901 71.7602 89.2901 73.2483 89.2901 76.2245V76.2245C89.2901 79.2008 89.2901 80.6889 88.9779 81.9089C88.0722 85.448 85.3086 88.2116 81.7694 89.1173C80.5494 89.4296 79.0663 89.4296 76.1001 89.4296V89.4296Z" fill="#f1f1f1"/>
<path d="M89.3988 238.315C89.3988 241.294 89.3988 242.783 89.0895 243.998C88.1859 247.546 85.4151 250.317 81.8667 251.22C80.6522 251.53 79.176 251.53 76.2238 251.53V251.53C73.2716 251.53 71.7955 251.53 70.581 251.22C67.0325 250.317 64.2618 247.546 63.3581 243.998C63.0488 242.783 63.0488 241.294 63.0488 238.315V238.315C63.0488 235.336 63.0488 233.846 63.3581 232.632C64.2618 229.083 67.0325 226.313 70.581 225.409C71.7955 225.1 73.2716 225.1 76.2238 225.1V225.1C79.176 225.1 80.6522 225.1 81.8667 225.409C85.4151 226.313 88.1859 229.083 89.0895 232.632C89.3988 233.846 89.3988 235.336 89.3988 238.315V238.315Z" fill="#f1f1f1"/>
</svg>
